<?xml version="1.0" standalone="no"?>
<!DOCTYPE svg PUBLIC "-//W3C//DTD SVG 20010904//EN"
 "http://www.w3.org/TR/2001/REC-SVG-20010904/DTD/svg10.dtd">
<svg version="1.0" xmlns="http://www.w3.org/2000/svg"
 width="260.000000pt" height="260.000000pt" viewBox="0 0 260.000000 260.000000"
 preserveAspectRatio="xMidYMid meet">
<metadata>
Created by potrace 1.14, written by Peter Selinger 2001-2017
</metadata>
<g transform="translate(0.000000,260.000000) scale(0.100000,-0.100000)"
fill="#000000" stroke="none">
<path d="M1463 1925 c-27 -19 -33 -46 -18 -82 13 -30 43 -43 101 -43 l24 0 0
-499 0 -498 -52 -5 c-57 -6 -78 -24 -78 -70 0 -15 9 -37 20 -48 18 -18 33 -20
188 -20 192 0 204 4 204 65 0 51 -28 75 -88 75 l-44 0 0 218 c0 124 5 234 11
256 15 53 92 128 151 149 72 24 157 17 207 -17 75 -53 86 -103 86 -401 l-1
-200 -53 -7 c-65 -8 -75 -17 -75 -69 1 -65 12 -69 204 -69 153 0 168 2 188 20
25 23 29 67 8 95 -9 12 -30 20 -68 23 l-54 4 -1 232 c0 127 -3 255 -7 285 -13
107 -73 196 -163 241 -41 21 -61 25 -143 24 -83 0 -102 -3 -152 -28 -31 -15
-75 -43 -97 -62 l-41 -36 0 231 c0 217 -1 231 -19 241 -31 16 -213 13 -238 -5z"/>
<path d="M529 1576 c-45 -16 -99 -53 -99 -69 -1 -7 -7 3 -15 21 l-14 32 -108
0 c-130 0 -153 -10 -153 -69 0 -48 17 -63 80 -69 43 -4 50 -8 51 -26 1 -33 1
-570 0 -582 -1 -6 -24 -14 -52 -16 -62 -6 -74 -17 -74 -69 0 -65 13 -69 205
-69 179 0 196 4 204 52 10 60 -19 88 -94 88 l-40 0 0 265 c0 291 2 304 60 345
66 47 143 35 182 -29 23 -35 23 -43 25 -360 2 -288 4 -326 19 -342 14 -16 32
-19 111 -19 108 0 133 14 133 74 0 42 -29 66 -80 66 l-35 0 0 238 c1 253 7
289 52 349 29 40 88 60 135 47 24 -7 39 -20 54 -51 19 -38 22 -61 23 -220 5
-474 5 -459 25 -482 17 -18 30 -21 112 -21 71 0 96 4 108 16 9 8 16 18 17 22
0 4 2 15 4 26 9 46 -25 76 -87 76 l-28 0 -1 243 c0 133 -2 267 -5 297 -14 170
-108 260 -257 248 -65 -5 -127 -36 -169 -83 l-31 -36 -14 29 c-39 80 -145 114
-244 78z"/>
</g>
</svg>
